<svg xmlns="http://www.w3.org/2000/svg" xmlns:xlink="http://www.w3.org/1999/xlink" version="1.1" x="0px" y="0px" viewBox="0 0 100 100"
     enable-background="new 0 0 100 100" xml:space="preserve">
    <path fill="#58595a" d="M34.104,35.071c-0.764-0.764-0.764-2.003,0-2.767l14.512-14.512c0.001-0.001,0.002-0.001,0.003-0.002  c0.126-0.125,0.268-0.223,0.415-0.307c0.036-0.021,0.072-0.039,0.109-0.057c0.15-0.074,0.305-0.133,0.467-0.166  c0.004-0.001,0.007-0.002,0.011-0.003c0.166-0.033,0.336-0.036,0.504-0.026c0.04,0.003,0.08,0.006,0.12,0.011  c0.171,0.021,0.34,0.058,0.501,0.125c0.001,0,0.002,0,0.003,0.001c0.004,0.002,0.007,0.005,0.011,0.007  c0.151,0.064,0.293,0.153,0.427,0.257c0.035,0.027,0.069,0.054,0.102,0.084c0.031,0.027,0.065,0.048,0.094,0.077l14.512,14.512  c0.764,0.764,0.764,2.003,0,2.767c-0.382,0.382-0.883,0.573-1.383,0.573c-0.501,0-1.002-0.191-1.384-0.573L51.957,23.899V65.86  c0,1.081-0.876,1.957-1.957,1.957c-1.081,0-1.957-0.876-1.957-1.957V23.899L36.872,35.071  C36.107,35.835,34.868,35.835,34.104,35.071z M83.415,49.247c-1.081,0-1.957,0.876-1.957,1.957V69.68  c0,5.063-4.119,9.181-9.182,9.181H27.724c-5.063,0-9.182-4.119-9.182-9.181V50.902c0-1.081-0.876-1.957-1.957-1.957  c-1.081,0-1.957,0.876-1.957,1.957V69.68c0,7.221,5.874,13.095,13.095,13.095h44.553c7.221,0,13.095-5.874,13.095-13.095V51.204  C85.371,50.123,84.495,49.247,83.415,49.247z"/></svg>