<svg xmlns:dc="http://purl.org/dc/elements/1.1/" xmlns:cc="http://creativecommons.org/ns#"
     xmlns:rdf="http://www.w3.org/1999/02/22-rdf-syntax-ns#" xmlns:svg="http://www.w3.org/2000/svg"
     xmlns="http://www.w3.org/2000/svg" xmlns:sodipodi="http://sodipodi.sourceforge.net/DTD/sodipodi-0.dtd"
     xmlns:inkscape="http://www.inkscape.org/namespaces/inkscape" version="1.1" x="0px" y="0px" viewBox="0 0 100 100">
    <g transform="translate(0,-952.36218)">
        <path style="text-indent:0;text-transform:none;direction:ltr;block-progression:tb;baseline-shift:baseline;color:#000000;enable-background:accumulate;"
              d="m 9.999999,974.36219 c -1.62739,0 -3,1.3726 -3,3 l 0,50.00001 c 0,1.6274 1.37261,3 3,3 l 80.000002,0 c 1.62739,0 3,-1.3726 3,-3 l 0,-50.00001 c 0,-1.6274 -1.37261,-3 -3,-3 l -80.000002,0 z m 1,4 78.000002,0 0,2.9688 -39.000002,28.53121 -39,-28.53121 0,-2.9688 z m 0,7.93748 37.8125,27.65633 a 2.0001998,2.0001998 0 0 0 2.375,0 l 37.812502,-27.65633 0,40.06253 -78.000002,0 0,-40.06253 z"
              fill="#58595a" fill-opacity="1" stroke="none" marker="none" visibility="visible" display="inline"
              overflow="visible"/>
    </g>
</svg>