<svg xmlns="http://www.w3.org/2000/svg" xmlns:xlink="http://www.w3.org/1999/xlink" viewBox="0 0 48 48" version="1.1" x="0px" y="0px"><title>ic_get_position</title><desc>Created with Sketch.</desc><g stroke="none" stroke-width="1" fill="none" fill-rule="evenodd"><path d="M24,38 C31.7319865,38 38,31.7319865 38,24 C38,16.2680135 31.7319865,10 24,10 C16.2680135,10 10,16.2680135 10,24 C10,31.7319865 16.2680135,38 24,38 Z M24,18 C20.6865,18 18,20.6865 18,24 C18,27.3135 20.6865,30 24,30 C27.3135,30 30,27.3135 30,24 C30,20.6865 27.3135,18 24,18 L24,18 Z M43.9012495,22 C42.9631123,12.5511671 35.4488329,5.03688774 26,4.09875049 L26,0.990777969 C26,0.45097518 25.5480902,0 24.9906311,0 L23.0093689,0 C22.4433532,0 22,0.443586406 22,0.990777969 L22,4.09875049 C12.5511671,5.03688774 5.03688774,12.5511671 4.09875049,22 L0.990777969,22 C0.45097518,22 -6.70920557e-16,22.4519098 -7.05055079e-16,23.0093689 L-8.263724e-16,24.9906311 C-8.61030867e-16,25.5566468 0.443586406,26 0.990777969,26 L4.09875049,26 C5.03688774,35.4488329 12.5511671,42.9631123 22,43.9012495 L22,47.009222 C22,47.5490248 22.4519098,48 23.0093689,48 L24.9906311,48 C25.5566468,48 26,47.5564136 26,47.009222 L26,43.9012495 C35.4488329,42.9631123 42.9631123,35.4488329 43.9012495,26 L47.009222,26 C47.5490248,26 48,25.5480902 48,24.9906311 L48,23.0093689 C48,22.4433532 47.5564136,22 47.009222,22 L43.9012495,22 Z" fill="#ffa712"/></g></svg>