<svg xmlns="http://www.w3.org/2000/svg" xmlns:xlink="http://www.w3.org/1999/xlink"
     version="1.1" x="0px" y="0px" viewBox="0 0 512 512"
     enable-background="new 0 0 512 512" xml:space="preserve">
    <g>
        <g><g>
            <path stroke-width="15" stroke="#ffa712" fill="#ffa712" d="M158.5,410.6C158.4,410.6,158.4,410.6,158.5,410.6c-8,0-16.1-0.3-24.2-0.8l-64.4-4.3l-4.3-64.4
                C59.7,67.6,199,53.2,322,40.5c50.2-5.2,97.5-10.1,133.1-31.5l11.6-7l4.7,70.7c6.1,92.4-23,178.1-82,241.2
                C331,376.2,249,410.6,158.5,410.6z M85.4,390l49.9,3.3c7.7,0.5,15.4,0.8,23.1,0.8c0,0,0,0,0,0c85.9,0,163.6-32.5,218.8-91.5
                c55.9-59.7,83.5-141,77.6-228.8L452,29.5c-36.7,18-81.3,22.6-128.3,27.4C202.2,69.5,76.5,82.5,82.1,340.4L85.4,390z"/>
        </g></g>
        <g><g>
            <polygon  stroke="#ffa712" fill="#ffa712" points="297.6,270.2 206.6,270.2 206.6,177.3 223.2,177.3 223.2,253.7 297.6,253.7    "/>
        </g></g>
        <g><g>
            <polygon  stroke="#ffa712" fill="#ffa712" points="223.2,320.3 132.2,320.3 132.2,227.4 148.8,227.4 148.8,303.7 223.2,303.7    "/>
        </g></g>
        <g><g>
            <polygon  stroke="#ffa712" fill="#ffa712" points="347.1,220.6 281,220.6 281,153.2 297.6,153.2 297.6,204.1 347.1,204.1    "/>
        </g></g>
        <g><g>
            <path stroke-width="15"  stroke="#ffa712" fill="#ffa712" d="M56.3,510l-16.5-0.2c1.3-97.6,47.3-175.3,140.4-237.5l161.7-108l9.2,13.7L189.4,286C101.1,345,57.6,418.3,56.3,510z"/>
        </g></g>
    </g>
</svg>