<svg xmlns="http://www.w3.org/2000/svg" xmlns:xlink="http://www.w3.org/1999/xlink" version="1.1" x="0px" y="0px" viewBox="0 0 100 100" enable-background="new 0 0 100 100" xml:space="preserve">
    <g>
        <g>
            <path d="M-3173.395,76.667c-0.852,0-1.641-0.548-1.909-1.404c-0.329-1.054,0.258-2.176,1.313-2.505l18.167-5.675
               c1.055-0.329,2.176,0.259,2.505,1.313c0.329,1.054-0.258,2.176-1.313,2.505l-18.167,5.675
               C-3172.997,76.638-3173.198,76.667-3173.395,76.667z"/></g>
        <g><path d="M-3195.593,76.667c-0.197,0-0.398-0.029-0.597-0.091l-18.167-5.675c-1.055-0.33-1.642-1.451-1.313-2.505
         c0.33-1.055,1.451-1.645,2.505-1.313l18.167,5.675c1.055,0.33,1.642,1.451,1.313,2.505
          C-3193.952,76.119-3194.741,76.667-3195.593,76.667z"/></g></g><g><g>
    <path d="M-3173.395,65.19c-0.852,0-1.641-0.548-1.909-1.404c-0.329-1.054,0.259-2.176,1.313-2.505l18.167-5.674
    c1.055-0.33,2.176,0.259,2.505,1.313c0.329,1.054-0.259,2.176-1.313,2.505l-18.167,5.674
    C-3172.997,65.161-3173.198,65.19-3173.395,65.19z"/></g><g>
    <path d="M-3195.593,65.19c-0.197,0-0.398-0.029-0.597-0.091l-18.167-5.674c-1.054-0.33-1.642-1.451-1.313-2.505
     c0.33-1.055,1.451-1.643,2.505-1.313l18.167,5.674c1.054,0.33,1.642,1.451,1.313,2.505
     C-3193.952,64.642-3194.741,65.19-3195.593,65.19z"/></g></g><g><g>
    <path d="M-3173.395,53.713c-0.852,0-1.641-0.548-1.909-1.404c-0.329-1.054,0.259-2.176,1.313-2.505l18.167-5.674
    c1.055-0.331,2.176,0.259,2.505,1.313c0.329,1.054-0.259,2.176-1.313,2.505l-18.167,5.674
    C-3172.997,53.684-3173.198,53.713-3173.395,53.713z"/></g><g>
    <path d="M-3195.593,53.713c-0.197,0-0.398-0.029-0.597-0.091l-18.167-5.674c-1.054-0.33-1.642-1.451-1.313-2.505
    c0.33-1.055,1.451-1.644,2.505-1.313l18.167,5.674c1.054,0.33,1.642,1.451,1.313,2.505
    C-3193.952,53.165-3194.741,53.713-3195.593,53.713z"/></g></g><g><g>
    <path d="M-3173.395,42.237c-0.852,0-1.641-0.548-1.909-1.404c-0.329-1.054,0.258-2.176,1.313-2.505l18.167-5.675
    c1.055-0.331,2.176,0.259,2.505,1.313c0.329,1.054-0.258,2.176-1.313,2.505l-18.167,5.675
    C-3172.997,42.208-3173.198,42.237-3173.395,42.237z"/></g><g>
    <path d="M-3195.593,42.237c-0.197,0-0.398-0.029-0.597-0.091l-18.167-5.675c-1.055-0.33-1.642-1.451-1.313-2.505
    c0.33-1.054,1.451-1.644,2.505-1.313l18.167,5.675c1.055,0.33,1.642,1.451,1.313,2.505
    C-3193.952,41.688-3194.741,42.237-3195.593,42.237z"/></g></g><g>
    <path d="M-3141.89,9.99c-0.77-0.57-1.76-0.73-2.67-0.45l-39.57,12.36l-39.57-12.36c-0.91-0.28-1.9-0.12-2.67,0.45
    c-0.77,0.56-1.22,1.46-1.22,2.41v69.8c0,1.32,0.85,2.48,2.1,2.87l40.47,12.64c0.06,0.02,0.11,0.03,0.17,0.04
    c0.06,0.02,0.12,0.03,0.18,0.04c0.08,0.01,0.15,0.03,0.22,0.03c0.11,0.01,0.21,0.02,0.32,0.02s0.21-0.01,0.32-0.02
    c0.07,0,0.15-0.02,0.23-0.03c0.05-0.01,0.1-0.02,0.15-0.03c0.07-0.01,0.13-0.03,0.2-0.05l40.46-12.64c1.25-0.39,2.1-1.55,2.1-2.87
    V12.4C-3140.67,11.45-3141.12,10.55-3141.89,9.99z M-3221.59,16.48l34.46,10.77v63.51L-3221.59,80V16.48z M-3146.67,80
     l-34.46,10.76V27.25l34.46-10.77V80z"/></g><g><g><g>
    <path fill="#58595a" d="M32.025,30.818c-0.414,0-0.828-0.158-1.144-0.474l-3.78-3.78c-0.632-0.632-0.632-1.657,0-2.288
    c0.632-0.632,1.656-0.632,2.288,0l2.636,2.636l6.416-6.416c0.632-0.632,1.656-0.632,2.288,0c0.632,0.632,0.632,1.657,0,2.288
    l-7.56,7.56C32.854,30.66,32.44,30.818,32.025,30.818z"/></g><g>
    <path fill="#58595a" d="M71.755,27.038h-22.79c-0.893,0-1.618-0.724-1.618-1.618c0-0.894,0.725-1.618,1.618-1.618h22.79
     c0.893,0,1.618,0.724,1.618,1.618C73.373,26.313,72.648,27.038,71.755,27.038z"/></g></g><g><g>
    <path fill="#58595a" d="M32.025,63.592c-0.414,0-0.828-0.158-1.144-0.474l-3.78-3.78c-0.632-0.632-0.632-1.657,0-2.288
    c0.632-0.632,1.656-0.632,2.288,0l2.636,2.636l6.416-6.416c0.632-0.632,1.656-0.632,2.288,0c0.632,0.632,0.632,1.657,0,2.288
    l-7.56,7.56C32.854,63.434,32.44,63.592,32.025,63.592z"/></g><g>
    <path fill="#58595a" d="M71.755,59.812h-22.79c-0.893,0-1.618-0.724-1.618-1.618c0-0.894,0.725-1.618,1.618-1.618h22.79
    c0.893,0,1.618,0.724,1.618,1.618C73.373,59.087,72.648,59.812,71.755,59.812z"/></g></g><g><g>
    <path fill="#58595a" d="M32.025,79.979c-0.414,0-0.828-0.158-1.144-0.474l-3.78-3.78c-0.632-0.632-0.632-1.657,0-2.288
    c0.632-0.632,1.656-0.632,2.288,0l2.636,2.636l6.416-6.416c0.632-0.632,1.656-0.632,2.288,0c0.632,0.632,0.632,1.657,0,2.288
    l-7.56,7.56C32.854,79.821,32.44,79.979,32.025,79.979z"/></g><g>
    <path fill="#58595a" d="M71.755,76.199h-22.79c-0.893,0-1.618-0.724-1.618-1.618c0-0.894,0.725-1.618,1.618-1.618h22.79
     c0.893,0,1.618,0.724,1.618,1.618C73.373,75.475,72.648,76.199,71.755,76.199z"/></g></g><g><g>
    <path fill="#58595a" d="M32.025,47.205c-0.414,0-0.828-0.158-1.144-0.474l-3.78-3.78c-0.632-0.632-0.632-1.657,0-2.288
    c0.632-0.632,1.656-0.632,2.288,0l2.636,2.636l6.416-6.416c0.632-0.632,1.656-0.632,2.288,0s0.632,1.657,0,2.288l-7.56,7.56
    C32.854,47.047,32.44,47.205,32.025,47.205z"/></g><g>
    <path fill="#58595a" d="M71.755,43.424h-22.79c-0.893,0-1.618-0.724-1.618-1.618c0-0.894,0.725-1.618,1.618-1.618h22.79
    c0.893,0,1.618,0.724,1.618,1.618C73.373,42.7,72.648,43.424,71.755,43.424z"/></g></g></g><g>
    <path fill="#58595a" d="M84.271,95H15.729c-0.893,0-1.618-0.724-1.618-1.618V6.618C14.111,5.724,14.835,5,15.729,5h68.542
    c0.893,0,1.618,0.724,1.618,1.618v86.763C85.889,94.276,85.165,95,84.271,95z M17.347,91.763h65.306V8.237H17.347V91.763z"/></g></svg>