<svg xmlns="http://www.w3.org/2000/svg" xmlns:xlink="http://www.w3.org/1999/xlink" version="1.1" x="0px" y="0px" viewBox="0 0 32 40" fill="#ffa712" enable-background="new 0 0 32 32" xml:space="preserve"><path d="M29.5,29H28V7c0-0.5523071-0.4476929-1-1-1h-3c-0.5522461,0-1,0.4476929-1,1v22h-1V15c0-0.5523071-0.4476929-1-1-1h-3  c-0.5522461,0-1,0.4476929-1,1v14h-1V11c0-0.5523071-0.4476929-1-1-1h-3c-0.5522461,0-1,0.4476929-1,1v18h-1V19  c0-0.5523071-0.4476929-1-1-1H6c-0.5522461,0-1,0.4476929-1,1v10H3V2.5C3,2.2236328,2.7763672,2,2.5,2S2,2.2236328,2,2.5v27  C2,29.7763672,2.2236328,30,2.5,30h27c0.2763672,0,0.5-0.2236328,0.5-0.5S29.7763672,29,29.5,29z M6,29V19h3v10H6z M12,29V11h3v18  H12z M18,29V15h3v14H18z M24,29V7h3v22H24z"/><text x="0" y="47" fill="#000000" font-size="5px" font-weight="bold" font-family="'Helvetica Neue', Helvetica, Arial-Unicode, Arial, Sans-serif">Created by Musket</text><text x="0" y="52" fill="#000000" font-size="5px" font-weight="bold" font-family="'Helvetica Neue', Helvetica, Arial-Unicode, Arial, Sans-serif">from the Noun Project</text></svg>