<svg xmlns="http://www.w3.org/2000/svg" data-name="Layer 1" viewBox="0 0 100 100" x="0px" y="0px">
    <defs>
        <style>.cls-1{font-size:78.78px;fill:#231f20;font-family:MyriadPro-Regular, Myriad
            Pro;}.cls-2{letter-spacing:0em;}.cls-3{letter-spacing:0em;}.cls-4{letter-spacing:-0.01em;}.cls-5{letter-spacing:-0.01em;}.cls-6{letter-spacing:0em;}.cls-7{letter-spacing:-0.01em;}.cls-8{letter-spacing:-0.02em;}.cls-9{letter-spacing:0.01em;}.cls-10{letter-spacing:0.02em;}.cls-11{letter-spacing:-0.01em;}.cls-12{fill:none;stroke:#58595a;stroke-miterlimit:10;stroke-width:5px;}
        </style>
    </defs>
    <title>telephone</title>
    <text class="cls-1" transform="translate(-614.78 -225.59)">D
        <tspan class="cls-2" x="52.47" y="0">r</tspan>
        <tspan class="cls-3" x="78.55" y="0">inks - di</tspan>
        <tspan class="cls-4" x="329.31" y="0">ff</tspan>
        <tspan class="cls-3" x="374.22" y="0">e</tspan>
        <tspan class="cls-5" x="413.69" y="0">r</tspan>
        <tspan class="cls-3" x="438.67" y="0">e</tspan>
        <tspan class="cls-6" x="478.14" y="0">n</tspan>
        <tspan x="521.55" y="0">t le</tspan>
        <tspan class="cls-5" x="622.39" y="0">v</tspan>
        <tspan x="659.5" y="0">els of fullness</tspan>
        <tspan class="cls-2" x="0" y="94.54">B</tspan>
        <tspan x="43.02" y="94.54">eer</tspan>
        <tspan class="cls-7" x="164.42" y="94.54">f</tspan>
        <tspan class="cls-3" x="186.4" y="94.54">oaming</tspan>
        <tspan class="cls-8">
            <tspan x="0" y="189.08">W</tspan>
            <tspan class="cls-3" x="65.39" y="189.08">ine</tspan>
        </tspan>
        <tspan class="cls-9" x="0" y="283.63">M</tspan>
        <tspan x="63.81" y="283.63">a</tspan>
        <tspan class="cls-10" x="101.79" y="283.63">r</tspan>
        <tspan x="129.44" y="283.63">tini</tspan>
        <tspan class="cls-11" x="0" y="378.17">C</tspan>
        <tspan x="44.83" y="378.17">ocktail</tspan>
        <tspan x="0" y="472.71">Shots</tspan>
    </text>
    <path class="cls-12"
          d="M67.33,81.88a29.82,29.82,0,0,1-11-2.43A60.73,60.73,0,0,1,38.8,68,80.91,80.91,0,0,1,24.69,51.67a44.24,44.24,0,0,1-6.07-14.14,17.67,17.67,0,0,1-.42-5.95A5.51,5.51,0,0,1,19.7,28.3q4.59-4.64,9.22-9.22c1.63-1.62,3.83-1.15,5,1q2.94,5.55,5.86,11.12l1.14,2.16a3.86,3.86,0,0,1-.67,4.7q-1.55,1.58-3.13,3.13a1.54,1.54,0,0,0-.43,1.64,17.55,17.55,0,0,0,2.86,5.62,49.68,49.68,0,0,0,14.1,13.36,11,11,0,0,0,3.63,1.51,1.5,1.5,0,0,0,1.48-.45c1.17-1.19,2.33-2.39,3.51-3.57a4.21,4.21,0,0,1,5.14-.69q6.38,3.74,12.72,7.52c2.16,1.29,2.38,3.4.58,5.18-3,2.94-5.91,5.89-8.89,8.81A6,6,0,0,1,67.33,81.88Z"/>
</svg>